<svg width="250" height="150" viewBox="0 0 250 150" fill="none" xmlns="http://www.w3.org/2000/svg">
<path d="M5.48402 147.594C5.48402 147.016 4.85727 146.763 3.41093 146.763C1.1209 146.763 0.144628 146.162 0.144628 144.706C0.144628 143.25 1.34991 142.431 3.45915 142.431C5.56839 142.431 6.78572 143.358 6.78572 144.742H5.33939C5.33939 144.14 4.59212 143.731 3.45915 143.731C2.32619 143.731 1.59096 144.068 1.59096 144.706C1.59096 145.343 2.1695 145.464 3.53147 145.464C5.94203 145.464 6.93037 146.114 6.93037 147.594C6.93037 149.074 5.72508 149.94 3.45915 149.94C1.38607 149.94 0 149.014 0 147.63H1.43427C1.43427 148.244 2.25387 148.641 3.45915 148.641C4.66443 148.641 5.48402 148.268 5.48402 147.594Z" fill="#3C3C3B"/>
<path d="M12.5108 149.796V142.576H13.9451V149.796H12.5108Z" fill="#3C3C3B"/>
<path d="M25.0096 147.594C25.0096 147.016 24.3828 146.763 22.9365 146.763C20.6465 146.763 19.6702 146.162 19.6702 144.706C19.6702 143.25 20.8755 142.431 22.9847 142.431C25.0939 142.431 26.3113 143.358 26.3113 144.742H24.8649C24.8649 144.14 24.1177 143.731 22.9847 143.731C21.8517 143.731 21.1045 144.068 21.1045 144.706C21.1045 145.343 21.683 145.464 23.057 145.464C25.4676 145.464 26.4559 146.114 26.4559 147.594C26.4559 149.074 25.2506 149.94 22.9847 149.94C20.9116 149.94 19.5256 149.014 19.5256 147.63H20.9598C20.9598 148.244 21.7794 148.641 22.9847 148.641C24.19 148.641 25.0096 148.268 25.0096 147.594Z" fill="#3C3C3B"/>
<path d="M31.2409 142.576H38.4726V143.875H35.5799V149.796H34.0974V143.875H31.2168L31.2409 142.576Z" fill="#3C3C3B"/>
<path d="M45.3306 143.875V145.536H49.525V146.812H45.3306V148.496H50.9713V149.796H43.8963V142.576H50.9713V143.875H45.3306Z" fill="#3C3C3B"/>
<path d="M60.2641 145.608H60.3605L62.6144 142.576H63.9161V149.796H62.4697V144.742C62.3764 145.03 62.2381 145.302 62.0599 145.548L61.0475 146.908H59.6012L58.5646 145.608C58.3931 145.36 58.2591 145.089 58.1669 144.802V149.856H56.7326V142.636H58.0222L60.2641 145.608Z" fill="#3C3C3B"/>
<path d="M69.2072 149.796L72.1602 142.576H74.3297L77.2947 149.796H75.7399L75.1372 148.352H71.3285L70.7379 149.796H69.2072ZM74.6069 147.052L73.3052 143.875H73.1606L71.8589 147.052H74.6069Z" fill="#3C3C3B"/>
<path d="M87.5637 147.594C87.5637 147.016 86.9369 146.763 85.4906 146.763C83.2006 146.763 82.2243 146.162 82.2243 144.706C82.2243 143.25 83.3693 142.431 85.5388 142.431C87.7083 142.431 88.8654 143.358 88.8654 144.742H87.4191C87.4191 144.14 86.6718 143.731 85.5388 143.731C84.4058 143.731 83.6586 144.068 83.6586 144.706C83.6586 145.343 84.2371 145.464 85.6111 145.464C88.0217 145.464 89.01 146.114 89.01 147.594C89.01 149.074 87.8047 149.94 85.5388 149.94C83.4657 149.94 82.0796 149.014 82.0796 147.63H83.5139C83.5139 148.244 84.3335 148.641 85.5388 148.641C86.7441 148.641 87.5637 148.268 87.5637 147.594Z" fill="#3C3C3B"/>
<path d="M103.401 143.875V145.536H107.62V146.812H103.401V148.496H109.042V149.796H101.955V142.576H109.042V143.875H103.401Z" fill="#3C3C3B"/>
<path d="M127.7 146.811H129.315C129.152 147.737 128.648 148.567 127.901 149.139C127.155 149.711 126.221 149.984 125.284 149.902C124.347 149.82 123.474 149.391 122.839 148.699C122.203 148.006 121.85 147.101 121.85 146.162C121.85 145.222 122.203 144.317 122.839 143.625C123.474 142.932 124.347 142.503 125.284 142.421C126.221 142.34 127.155 142.612 127.901 143.184C128.648 143.756 129.152 144.587 129.315 145.512H127.76C127.656 145.016 127.383 144.572 126.987 144.256C126.591 143.94 126.097 143.771 125.59 143.779C124.951 143.779 124.338 144.033 123.886 144.484C123.434 144.935 123.18 145.547 123.18 146.186C123.18 146.824 123.434 147.436 123.886 147.888C124.338 148.339 124.951 148.592 125.59 148.592C126.093 148.582 126.577 148.399 126.961 148.075C127.345 147.751 127.606 147.305 127.7 146.811Z" fill="#3C3C3B"/>
<path d="M141.982 146.186C141.982 146.928 141.762 147.654 141.348 148.272C140.935 148.889 140.348 149.37 139.661 149.654C138.974 149.939 138.217 150.013 137.488 149.868C136.759 149.723 136.089 149.366 135.563 148.841C135.037 148.316 134.679 147.647 134.533 146.918C134.388 146.19 134.463 145.435 134.747 144.749C135.032 144.063 135.514 143.477 136.132 143.064C136.751 142.651 137.478 142.431 138.222 142.431C138.721 142.411 139.219 142.494 139.685 142.675C140.15 142.857 140.573 143.133 140.926 143.486C141.279 143.838 141.556 144.26 141.737 144.725C141.919 145.19 142.003 145.687 141.982 146.186ZM140.463 146.186C140.431 145.752 140.272 145.337 140.006 144.991C139.741 144.646 139.381 144.386 138.969 144.242C138.558 144.098 138.113 144.077 137.69 144.181C137.267 144.286 136.883 144.511 136.586 144.83C136.29 145.149 136.092 145.547 136.018 145.976C135.945 146.405 135.998 146.846 136.171 147.245C136.345 147.644 136.631 147.985 136.995 148.224C137.36 148.463 137.786 148.591 138.222 148.592C138.531 148.593 138.837 148.53 139.12 148.408C139.404 148.285 139.659 148.105 139.87 147.879C140.08 147.652 140.242 147.385 140.344 147.094C140.446 146.803 140.487 146.494 140.463 146.186Z" fill="#3C3C3B"/>
<path d="M148.997 144.814V149.796H147.551V142.576H148.852L153.336 147.558V142.576H154.782V149.796H153.48L148.997 144.814Z" fill="#3C3C3B"/>
<path d="M165.847 147.594C165.847 147.016 165.208 146.763 163.762 146.763C161.472 146.763 160.495 146.162 160.495 144.706C160.495 143.25 161.701 142.431 163.822 142.431C165.811 142.431 167.148 143.358 167.148 144.742H165.702C165.702 144.14 164.943 143.731 163.822 143.731C162.701 143.731 161.942 144.068 161.942 144.706C161.942 145.343 162.52 145.464 163.894 145.464C166.305 145.464 167.293 146.114 167.293 147.594C167.293 149.074 166.088 149.94 163.822 149.94C161.556 149.94 160.351 149.014 160.351 147.63H161.857C161.857 148.244 162.665 148.641 163.882 148.641C165.099 148.641 165.847 148.268 165.847 147.594Z" fill="#3C3C3B"/>
<path d="M178.358 146.33V142.576H179.792V146.33C179.82 146.802 179.751 147.274 179.589 147.718C179.428 148.162 179.177 148.568 178.852 148.912C178.528 149.255 178.136 149.529 177.702 149.716C177.268 149.903 176.8 150 176.327 150C175.854 150 175.386 149.903 174.951 149.716C174.517 149.529 174.125 149.255 173.801 148.912C173.476 148.568 173.226 148.162 173.064 147.718C172.903 147.274 172.834 146.802 172.861 146.33V142.576H174.308V146.33C174.277 146.614 174.306 146.902 174.394 147.174C174.481 147.446 174.625 147.696 174.816 147.909C175.007 148.121 175.241 148.292 175.502 148.408C175.764 148.525 176.047 148.585 176.333 148.585C176.619 148.585 176.902 148.525 177.163 148.408C177.424 148.292 177.658 148.121 177.849 147.909C178.04 147.696 178.184 147.446 178.272 147.174C178.359 146.902 178.389 146.614 178.358 146.33Z" fill="#3C3C3B"/>
<path d="M185.734 142.576H187.168V148.496H191.507V149.796H185.722L185.734 142.576Z" fill="#3C3C3B"/>
<path d="M195.28 142.576H202.511V143.875H199.619V149.796H198.172V143.875H195.28V142.576Z" fill="#3C3C3B"/>
<path d="M214.504 146.186C214.504 146.929 214.283 147.655 213.869 148.273C213.456 148.891 212.868 149.372 212.18 149.656C211.492 149.939 210.735 150.013 210.005 149.867C209.276 149.721 208.606 149.363 208.08 148.836C207.555 148.31 207.197 147.64 207.054 146.911C206.91 146.182 206.986 145.426 207.273 144.741C207.559 144.055 208.043 143.469 208.663 143.058C209.283 142.647 210.011 142.429 210.755 142.431C211.254 142.413 211.751 142.497 212.215 142.679C212.679 142.861 213.1 143.138 213.452 143.49C213.804 143.843 214.079 144.264 214.26 144.728C214.441 145.192 214.524 145.688 214.504 146.186ZM212.997 146.186C212.964 145.752 212.806 145.337 212.54 144.991C212.275 144.646 211.914 144.386 211.503 144.242C211.091 144.098 210.647 144.077 210.224 144.181C209.801 144.286 209.417 144.511 209.12 144.83C208.823 145.149 208.626 145.547 208.552 145.976C208.479 146.405 208.532 146.846 208.705 147.245C208.879 147.644 209.165 147.985 209.529 148.224C209.893 148.463 210.32 148.591 210.755 148.592C211.065 148.593 211.371 148.53 211.654 148.408C211.938 148.285 212.193 148.105 212.403 147.879C212.614 147.652 212.775 147.385 212.878 147.094C212.98 146.803 213.021 146.494 212.997 146.186Z" fill="#3C3C3B"/>
<path d="M220.084 142.576H225.291C225.581 142.558 225.871 142.602 226.142 142.705C226.413 142.807 226.659 142.966 226.864 143.171C227.069 143.376 227.229 143.622 227.331 143.892C227.434 144.163 227.478 144.453 227.461 144.742C227.477 145.267 227.287 145.777 226.931 146.164C226.575 146.551 226.082 146.783 225.556 146.811C225.657 146.918 225.746 147.035 225.822 147.16L227.461 149.784H225.822L223.989 146.811H221.579V149.772H220.133L220.084 142.576ZM225.291 145.536C225.388 145.541 225.484 145.526 225.574 145.492C225.664 145.457 225.746 145.404 225.814 145.336C225.882 145.268 225.935 145.186 225.97 145.096C226.004 145.006 226.02 144.91 226.014 144.814V144.597C226.02 144.501 226.004 144.405 225.97 144.315C225.935 144.225 225.882 144.143 225.814 144.075C225.746 144.007 225.664 143.954 225.574 143.92C225.484 143.885 225.388 143.87 225.291 143.875H221.531V145.536H225.291Z" fill="#3C3C3B"/>
<path d="M233.101 149.796V142.576H234.548V149.796H233.101Z" fill="#3C3C3B"/>
<path d="M239.827 149.796L242.792 142.576H245.022L247.987 149.796H246.42L245.829 148.352H242.008L241.418 149.796H239.827ZM245.227 147.052L243.925 143.875H243.816L242.491 147.052H245.227Z" fill="#3C3C3B"/>
<path d="M31.6868 107.918V90.4575C31.6868 89.3553 32.1245 88.2981 32.904 87.5176C33.6835 86.7371 34.7411 86.2971 35.8451 86.2939C36.3927 86.2939 36.935 86.4016 37.4409 86.6108C37.9469 86.8201 38.4066 87.1268 38.7939 87.5134C39.1811 87.9 39.4883 88.359 39.6979 88.8642C39.9075 89.3693 40.0153 89.9108 40.0153 90.4575V107.918C40.0153 119.952 31.5784 128.725 20.0197 128.725C8.46107 128.725 0.0240915 119.904 0.0240915 107.918V90.4575C0.0225057 89.9113 0.128904 89.3702 0.337164 88.8651C0.545424 88.36 0.851456 87.9009 1.23774 87.5141C1.62403 87.1273 2.08295 86.8204 2.58824 86.6111C3.09352 86.4017 3.63523 86.2939 4.18231 86.2939C5.28833 86.2939 6.34906 86.7325 7.13114 87.5134C7.91322 88.2942 8.35259 89.3533 8.35259 90.4575V107.918C8.35259 115.415 13.2701 120.819 20.0197 120.819C26.7693 120.819 31.6868 115.415 31.6868 107.918Z" fill="#1E539C"/>
<path d="M57.4919 99.182V123.659C57.4919 124.78 57.0466 125.856 56.2535 126.65C55.4605 127.444 54.3845 127.891 53.2614 127.894C52.1745 127.894 51.1322 127.463 50.3637 126.696C49.5952 125.929 49.1634 124.888 49.1634 123.803V90.4936C49.1634 89.9411 49.2726 89.394 49.4848 88.8837C49.6969 88.3734 50.0078 87.9098 50.3997 87.5197C50.7916 87.1296 51.2567 86.8205 51.7685 86.6101C52.2802 86.3998 52.8285 86.2923 53.3819 86.2939H55.455C55.839 86.2924 56.2191 86.3721 56.5701 86.5276C56.9212 86.6832 57.2353 86.9111 57.4919 87.1964L82.5135 114.994V90.4696C82.512 89.9218 82.6187 89.3791 82.8275 88.8725C83.0364 88.366 83.3433 87.9055 83.7307 87.5176C84.1181 87.1297 84.5784 86.822 85.0851 86.612C85.5919 86.402 86.1352 86.2939 86.6838 86.2939C87.2293 86.2923 87.7698 86.3982 88.2742 86.6055C88.7786 86.8129 89.2371 87.1175 89.6234 87.5021C90.0097 87.8866 90.3162 88.3435 90.5253 88.8465C90.7344 89.3496 90.842 89.8888 90.842 90.4335V123.803C90.842 124.888 90.4103 125.929 89.6418 126.696C88.8733 127.463 87.8309 127.894 86.7441 127.894H84.5143C84.1453 127.893 83.7807 127.814 83.4443 127.663C83.1079 127.512 82.8072 127.291 82.5618 127.016L57.4919 99.182Z" fill="#1E539C"/>
<path d="M100.002 123.731V90.4575C100.002 89.3553 100.44 88.2981 101.219 87.5176C101.999 86.7371 103.056 86.2971 104.16 86.2939C105.266 86.2939 106.327 86.7325 107.109 87.5134C107.891 88.2942 108.331 89.3533 108.331 90.4575V123.731C108.331 124.835 107.891 125.894 107.109 126.675C106.327 127.456 105.266 127.894 104.16 127.894C103.056 127.891 101.999 127.451 101.219 126.671C100.44 125.89 100.002 124.833 100.002 123.731Z" fill="#1E539C"/>
<path d="M118.467 86.2939H152.685C153.644 86.2939 154.564 86.6742 155.242 87.3513C155.92 88.0283 156.301 88.9465 156.301 89.904C156.301 90.416 156.2 90.923 156.004 91.396C155.807 91.8691 155.52 92.2989 155.157 92.661C154.794 93.023 154.364 93.3102 153.89 93.5061C153.416 93.7021 152.909 93.8029 152.396 93.8029H139.584V123.635C139.584 124.76 139.137 125.84 138.342 126.638C137.547 127.436 136.468 127.888 135.341 127.894C134.263 127.891 133.23 127.461 132.468 126.699C131.707 125.936 131.279 124.904 131.279 123.827V93.7428H118.262C117.303 93.7428 116.384 93.3624 115.705 92.6854C115.027 92.0083 114.646 91.0901 114.646 90.1326C114.646 89.1187 115.048 88.1459 115.764 87.4267C116.48 86.7075 117.452 86.3002 118.467 86.2939Z" fill="#1E539C"/>
<path d="M211.479 127.894C210.424 127.894 209.412 127.476 208.666 126.731C207.92 125.987 207.501 124.977 207.501 123.923V89.182C207.501 88.416 207.806 87.6814 208.348 87.1398C208.891 86.5982 209.627 86.2939 210.394 86.2939H237.308C240.63 86.2744 243.826 87.5636 246.202 89.8818C248.578 92.2 249.942 95.3602 249.999 98.6766C250.06 105.897 245.046 110.855 237.501 110.855H215.806V123.538C215.806 124.687 215.351 125.79 214.541 126.606C213.73 127.422 212.63 127.885 211.479 127.894ZM215.842 103.346H237.537C238.641 103.346 239.7 102.909 240.481 102.13C241.263 101.352 241.704 100.296 241.707 99.194V97.9907C241.707 96.8864 241.268 95.8273 240.486 95.0465C239.704 94.2657 238.643 93.827 237.537 93.827H215.842V103.346Z" fill="#1E539C"/>
<path d="M192.833 103.141C192.26 101.884 191.544 100.697 190.7 99.6032L194.472 91.9618C197.049 94.0667 199.089 96.7514 200.426 99.7957L192.833 103.141Z" fill="#1E539C"/>
<path d="M178.623 128.195C169.547 128.508 161.905 120.975 161.568 111.276C161.23 101.577 168.318 93.5261 177.393 93.2253C180.066 93.1302 182.718 93.7227 185.095 94.9461L190.7 89.4587C187.416 87.7301 183.757 86.8333 180.045 86.8474C167.992 86.8474 158.109 96.1736 158.109 107.678C158.109 119.182 166.51 128.195 178.623 128.195Z" fill="#1E539C"/>
<path d="M182.347 111.529C182.013 111.965 181.596 112.331 181.121 112.606C180.645 112.882 180.119 113.061 179.574 113.133C179.029 113.206 178.475 113.171 177.944 113.03C177.412 112.889 176.914 112.644 176.477 112.311C176.04 111.977 175.674 111.561 175.398 111.086C175.122 110.611 174.943 110.087 174.87 109.543C174.797 108.998 174.832 108.445 174.974 107.915C175.115 107.384 175.36 106.887 175.694 106.45C178.743 102.479 196.003 86.4022 196.003 86.4022L182.347 111.529Z" fill="#1E539C"/>
<path d="M186.812 79.2783L42.5641 77.4733L186.812 75.6682C187.292 75.6682 187.751 75.8584 188.091 76.1969C188.43 76.5354 188.62 76.9945 188.62 77.4733C188.62 77.952 188.43 78.4111 188.091 78.7496C187.751 79.0881 187.292 79.2783 186.812 79.2783Z" fill="#F7BA25"/>
<path d="M77.24 66.3541C76.1386 66.3541 75.0621 66.6802 74.1463 67.291C73.2306 67.9019 72.5169 68.7702 72.0954 69.7861C71.674 70.802 71.5637 71.9198 71.7786 72.9983C71.9934 74.0767 72.5238 75.0674 73.3025 75.8449C74.0813 76.6224 75.0735 77.1519 76.1536 77.3664C77.2338 77.5809 78.3534 77.4708 79.3709 77.0501C80.3884 76.6293 81.2581 75.9167 81.8699 75.0024C82.4818 74.0881 82.8084 73.0133 82.8084 71.9137C82.8084 70.4392 82.2217 69.0251 81.1774 67.9825C80.1332 66.9398 78.7168 66.3541 77.24 66.3541ZM78.7225 71.9137C78.7225 72.1969 78.6383 72.4738 78.4807 72.7093C78.3231 72.9448 78.0991 73.1283 77.8371 73.2367C77.575 73.3451 77.2866 73.3734 77.0084 73.3182C76.7301 73.2629 76.4746 73.1265 76.274 72.9263C76.0734 72.726 75.9368 72.4708 75.8815 72.193C75.8261 71.9153 75.8545 71.6273 75.9631 71.3657C76.0716 71.104 76.2555 70.8803 76.4913 70.723C76.7272 70.5656 77.0045 70.4817 77.2882 70.4817C77.6686 70.4817 78.0334 70.6325 78.3024 70.9011C78.5714 71.1696 78.7225 71.5339 78.7225 71.9137Z" fill="#489742"/>
<path d="M88.7142 55.0544C87.6026 55.0572 86.5169 55.3906 85.596 56.0122C84.675 56.6338 83.9605 57.5153 83.5436 58.5442H70.9243C70.4427 57.3455 69.558 56.3515 68.4223 55.7331C67.2866 55.1147 65.9707 54.9104 64.7005 55.1553C63.4303 55.4001 62.2851 56.0789 61.4617 57.075C60.6382 58.0711 60.1878 59.3224 60.1878 60.614C60.1878 61.9056 60.6382 63.1569 61.4617 64.153C62.2851 65.1491 63.4303 65.8279 64.7005 66.0728C65.9707 66.3176 67.2866 66.1133 68.4223 65.4949C69.558 64.8765 70.4427 63.8826 70.9243 62.6838H83.5436C83.9201 63.621 84.5452 64.4382 85.3518 65.0475C86.1584 65.6568 87.1159 66.0353 88.1217 66.1423C89.1274 66.2493 90.1433 66.0808 91.0604 65.6548C91.9774 65.2289 92.761 64.5616 93.3269 63.7247C93.8928 62.8877 94.2197 61.9127 94.2725 60.9042C94.3253 59.8958 94.102 58.892 93.6266 58.0007C93.1512 57.1094 92.4416 56.3642 91.574 55.8451C90.7064 55.3261 89.7136 55.0527 88.7022 55.0544H88.7142ZM90.1365 60.614C90.1365 60.8977 90.052 61.1751 89.8939 61.4108C89.7357 61.6466 89.511 61.8301 89.2483 61.9381C88.9855 62.0462 88.6965 62.0738 88.4179 62.0176C88.1394 61.9613 87.8838 61.8237 87.6837 61.6223C87.4836 61.4208 87.348 61.1645 87.294 60.8859C87.24 60.6074 87.2702 60.3191 87.3806 60.0576C87.491 59.7962 87.6767 59.5734 87.9141 59.4175C88.1516 59.2616 88.4301 59.1796 88.7142 59.182C88.902 59.182 89.088 59.2191 89.2613 59.2912C89.4346 59.3633 89.592 59.469 89.7242 59.6021C89.8564 59.7353 89.9609 59.8932 90.0317 60.0669C90.1025 60.2406 90.1381 60.4265 90.1365 60.614ZM67.2361 60.614C67.2361 60.8977 67.1517 61.1751 66.9935 61.4108C66.8354 61.6466 66.6107 61.8301 66.3479 61.9381C66.0851 62.0462 65.7961 62.0738 65.5176 62.0176C65.239 61.9613 64.9835 61.8237 64.7834 61.6223C64.5833 61.4208 64.4476 61.1645 64.3937 60.8859C64.3397 60.6074 64.3698 60.3191 64.4802 60.0576C64.5906 59.7962 64.7763 59.5734 65.0138 59.4175C65.2512 59.2616 65.5297 59.1796 65.8139 59.182C66.1869 59.1915 66.5412 59.3469 66.8005 59.6147C67.0598 59.8826 67.2033 60.2415 67.2 60.614H67.2361Z" fill="#F7BA25"/>
<path d="M129.477 41.3961C128.369 41.4036 127.289 41.7393 126.373 42.3606C125.457 42.9819 124.746 43.8608 124.33 44.8859H101.43C100.985 43.4453 100.09 42.185 98.8751 41.2897C97.6604 40.3944 96.1903 39.9114 94.6804 39.9114C93.1706 39.9114 91.7005 40.3944 90.4858 41.2897C89.271 42.185 88.3756 43.4453 87.9309 44.8859H79.9278C79.5179 43.8557 78.8076 42.9721 77.8889 42.3495C76.9702 41.727 75.8855 41.3941 74.7752 41.3941C73.6649 41.3941 72.5802 41.727 71.6615 42.3495C70.7429 42.9721 70.0326 43.8557 69.6226 44.8859H61.1857C60.7051 43.6827 59.8196 42.6843 58.6815 42.0623C57.5435 41.4404 56.2239 41.2338 54.9498 41.4781C53.6756 41.7224 52.5266 42.4023 51.7002 43.4009C50.8738 44.3995 50.4217 45.6543 50.4217 46.9497C50.4217 48.2451 50.8738 49.4999 51.7002 50.4985C52.5266 51.4971 53.6756 52.1771 54.9498 52.4213C56.2239 52.6656 57.5435 52.459 58.6815 51.8371C59.8196 51.2151 60.7051 50.2167 61.1857 49.0135H69.6226C70.0326 50.0437 70.7429 50.9273 71.6615 51.5499C72.5802 52.1724 73.6649 52.5053 74.7752 52.5053C75.8855 52.5053 76.9702 52.1724 77.8889 51.5499C78.8076 50.9273 79.5179 50.0437 79.9278 49.0135H87.9791C88.4238 50.4541 89.3192 51.7144 90.534 52.6097C91.7487 53.505 93.2188 53.9881 94.7286 53.9881C96.2385 53.9881 97.7086 53.505 98.9233 52.6097C100.138 51.7144 101.033 50.4541 101.478 49.0135H124.379C124.755 49.9481 125.379 50.7628 126.184 51.3701C126.989 51.9773 127.945 52.3542 128.948 52.4604C129.952 52.5665 130.965 52.3978 131.88 51.9725C132.794 51.5471 133.576 50.8812 134.14 50.046C134.704 49.2109 135.03 48.2381 135.083 47.232C135.135 46.226 134.912 45.2247 134.438 44.3356C133.963 43.4465 133.255 42.7031 132.39 42.1852C131.524 41.6674 130.534 41.3946 129.525 41.3961H129.477ZM130.911 46.9317C130.911 47.2149 130.827 47.4917 130.669 47.7272C130.512 47.9627 130.288 48.1463 130.026 48.2547C129.764 48.363 129.475 48.3914 129.197 48.3361C128.919 48.2809 128.663 48.1445 128.463 47.9442C128.262 47.744 128.126 47.4888 128.07 47.211C128.015 46.9332 128.043 46.6453 128.152 46.3836C128.26 46.122 128.444 45.8983 128.68 45.741C128.916 45.5836 129.193 45.4996 129.477 45.4996C129.857 45.4996 130.222 45.6505 130.491 45.9191C130.76 46.1876 130.911 46.5519 130.911 46.9317ZM97.6213 46.9317C97.6213 47.51 97.4496 48.0754 97.1277 48.5562C96.8059 49.0371 96.3485 49.4119 95.8133 49.6333C95.2781 49.8546 94.6892 49.9125 94.1211 49.7997C93.553 49.6868 93.0311 49.4083 92.6215 48.9994C92.2119 48.5904 91.9329 48.0694 91.8199 47.5021C91.7069 46.9349 91.7649 46.3469 91.9866 45.8126C92.2083 45.2783 92.5837 44.8216 93.0653 44.5003C93.547 44.179 94.1132 44.0075 94.6925 44.0075C95.4693 44.0075 96.2142 44.3155 96.7635 44.8639C97.3128 45.4123 97.6213 46.1561 97.6213 46.9317ZM74.721 48.3637C74.3406 48.3637 73.9758 48.2128 73.7068 47.9442C73.4378 47.6757 73.2867 47.3114 73.2867 46.9317C73.2867 46.5519 73.4378 46.1876 73.7068 45.9191C73.9758 45.6505 74.3406 45.4996 74.721 45.4996C75.1014 45.4996 75.4662 45.6505 75.7352 45.9191C76.0042 46.1876 76.1553 46.5519 76.1553 46.9317C76.1553 47.3114 76.0042 47.6757 75.7352 47.9442C75.4662 48.2128 75.1014 48.3637 74.721 48.3637ZM57.4252 46.9317C57.4687 47.14 57.4651 47.3554 57.4147 47.5622C57.3643 47.769 57.2683 47.962 57.1338 48.1271C56.9994 48.2922 56.8297 48.4254 56.6372 48.5168C56.4447 48.6082 56.2342 48.6557 56.021 48.6557C55.8079 48.6557 55.5974 48.6082 55.4049 48.5168C55.2124 48.4254 55.0427 48.2922 54.9082 48.1271C54.7738 47.962 54.6778 47.769 54.6274 47.5622C54.577 47.3554 54.5734 47.14 54.6169 46.9317C54.6169 46.5519 54.768 46.1876 55.037 45.9191C55.306 45.6505 55.6708 45.4996 56.0512 45.4996C56.4316 45.4996 56.7964 45.6505 57.0654 45.9191C57.3343 46.1876 57.4855 46.5519 57.4855 46.9317H57.4252Z" fill="#1E539C"/>
<path d="M138.673 26.0411C137.564 26.0462 136.481 26.3808 135.562 27.0022C134.643 27.6236 133.931 28.5039 133.515 29.5309H130.815C130.402 28.5017 129.69 27.6195 128.771 26.998C127.851 26.3766 126.766 26.0445 125.656 26.0445C124.546 26.0445 123.461 26.3766 122.541 26.998C121.622 27.6195 120.91 28.5017 120.498 29.5309H117.195C116.734 27.5545 115.616 25.7922 114.024 24.5305C112.432 23.2689 110.459 22.5822 108.427 22.5822C106.394 22.5822 104.421 23.2689 102.829 24.5305C101.237 25.7922 100.12 27.5545 99.6582 29.5309H83.8811C83.4346 28.1252 82.5514 26.898 81.3595 26.027C80.1677 25.1561 78.7291 24.6866 77.2521 24.6866C75.7751 24.6866 74.3364 25.1561 73.1446 26.027C71.9527 26.898 71.0695 28.1252 70.623 29.5309H53.2911C52.8069 28.3309 51.9196 27.3365 50.7814 26.7184C49.6431 26.1002 48.3249 25.8967 47.0528 26.1429C45.7808 26.3891 44.6342 27.0696 43.8097 28.0676C42.9852 29.0657 42.5343 30.319 42.5343 31.6127C42.5343 32.9064 42.9852 34.1598 43.8097 35.1578C44.6342 36.1558 45.7808 36.8363 47.0528 37.0825C48.3249 37.3287 49.6431 37.1253 50.7814 36.5071C51.9196 35.8889 52.8069 34.8945 53.2911 33.6946H70.5989C71.0454 35.1002 71.9286 36.3274 73.1205 37.1984C74.3123 38.0694 75.751 38.5389 77.228 38.5389C78.7049 38.5389 80.1436 38.0694 81.3354 37.1984C82.5273 36.3274 83.4105 35.1002 83.857 33.6946H99.6582C100.12 35.6709 101.237 37.4333 102.829 38.6949C104.421 39.9566 106.394 40.6432 108.427 40.6432C110.459 40.6432 112.432 39.9566 114.024 38.6949C115.616 37.4333 116.734 35.6709 117.195 33.6946H120.498C120.905 34.7286 121.616 35.6161 122.536 36.2416C123.456 36.867 124.543 37.2015 125.656 37.2015C126.769 37.2015 127.857 36.867 128.777 36.2416C129.697 35.6161 130.407 34.7286 130.815 33.6946H133.515C133.889 34.6334 134.513 35.4525 135.319 36.0638C136.125 36.6751 137.083 37.0555 138.089 37.1641C139.095 37.2728 140.112 37.1055 141.03 36.6803C141.949 36.2551 142.733 35.588 143.3 34.7508C143.867 33.9137 144.195 32.938 144.248 31.9288C144.301 30.9197 144.078 29.9151 143.602 29.0232C143.126 28.1312 142.416 27.3856 141.548 26.8666C140.679 26.3475 139.685 26.0746 138.673 26.0772V26.0411ZM140.095 31.6007C140.095 31.8844 140.011 32.1618 139.853 32.3975C139.695 32.6333 139.47 32.8168 139.207 32.9248C138.944 33.0328 138.655 33.0605 138.377 33.0042C138.098 32.948 137.843 32.8104 137.643 32.6089C137.443 32.4075 137.307 32.1512 137.253 31.8726C137.199 31.594 137.229 31.3057 137.34 31.0443C137.45 30.7828 137.636 30.56 137.873 30.4041C138.111 30.2482 138.389 30.1663 138.673 30.1687C139.051 30.1718 139.413 30.3241 139.68 30.5923C139.946 30.8605 140.095 31.223 140.095 31.6007ZM127.09 31.6007C127.09 31.8839 127.006 32.1608 126.849 32.3963C126.691 32.6318 126.467 32.8153 126.205 32.9237C125.943 33.0321 125.655 33.0604 125.376 33.0052C125.098 32.9499 124.843 32.8135 124.642 32.6133C124.441 32.413 124.305 32.1578 124.249 31.8801C124.194 31.6023 124.222 31.3144 124.331 31.0527C124.44 30.791 124.623 30.5674 124.859 30.41C125.095 30.2527 125.372 30.1687 125.656 30.1687C125.845 30.1687 126.031 30.2057 126.205 30.2777C126.379 30.3496 126.537 30.4551 126.67 30.5881C126.804 30.7211 126.909 30.8789 126.981 31.0527C127.053 31.2264 127.09 31.4126 127.09 31.6007ZM113.302 31.6007C113.29 32.5501 112.997 33.4747 112.46 34.2583C111.923 35.0419 111.166 35.6495 110.284 36.0046C109.403 36.3598 108.435 36.4465 107.504 36.2541C106.573 36.0616 105.719 35.5985 105.051 34.923C104.383 34.2475 103.93 33.3897 103.748 32.4577C103.567 31.5256 103.666 30.5609 104.033 29.6849C104.399 28.8088 105.017 28.0606 105.809 27.5343C106.6 27.008 107.53 26.7271 108.481 26.727C109.765 26.7429 110.991 27.2633 111.894 28.1756C112.796 29.0879 113.302 30.3185 113.302 31.6007ZM80.0604 31.6007C80.0604 32.1576 79.8949 32.702 79.585 33.1651C79.2751 33.6282 78.8347 33.9891 78.3193 34.2022C77.8039 34.4154 77.2369 34.4711 76.6898 34.3625C76.1427 34.2538 75.6401 33.9856 75.2457 33.5918C74.8513 33.198 74.5827 32.6963 74.4738 32.15C74.365 31.6038 74.4209 31.0376 74.6343 30.5231C74.8478 30.0086 75.2093 29.5688 75.6731 29.2594C76.1369 28.9499 76.6822 28.7848 77.24 28.7848C77.988 28.7848 78.7054 29.0815 79.2343 29.6096C79.7632 30.1376 80.0604 30.8539 80.0604 31.6007ZM48.1325 33.0327C47.8488 33.0327 47.5715 32.9487 47.3356 32.7914C47.0997 32.634 46.9159 32.4104 46.8073 32.1487C46.6988 31.887 46.6704 31.5991 46.7257 31.3213C46.7811 31.0435 46.9177 30.7884 47.1183 30.5881C47.3189 30.3878 47.5744 30.2514 47.8526 30.1962C48.1309 30.1409 48.4193 30.1693 48.6813 30.2777C48.9434 30.3861 49.1674 30.5696 49.325 30.8051C49.4826 31.0406 49.5667 31.3175 49.5667 31.6007C49.5667 31.7887 49.5296 31.975 49.4576 32.1487C49.3855 32.3224 49.2798 32.4803 49.1467 32.6133C49.0135 32.7463 48.8553 32.8517 48.6813 32.9237C48.5073 32.9957 48.3208 33.0327 48.1325 33.0327Z" fill="#489742"/>
<path d="M104.335 0.00011549C103.228 0.0127083 102.15 0.353501 101.238 0.979179C100.326 1.60486 99.6209 2.48717 99.2123 3.51396H83.7003C83.2188 2.31861 82.3357 1.32785 81.2024 0.711709C80.0691 0.0955683 78.7563 -0.107525 77.4894 0.137284C76.2225 0.382093 75.0804 1.05954 74.2592 2.05335C73.438 3.04717 72.9888 4.29538 72.9888 5.58377C72.9888 6.87215 73.438 8.12036 74.2592 9.11418C75.0804 10.108 76.2225 10.7854 77.4894 11.0302C78.7563 11.2751 80.0691 11.072 81.2024 10.4558C82.3357 9.83968 83.2188 8.84892 83.7003 7.65357H99.2123C99.5932 8.58904 100.222 9.40325 101.032 10.0088C101.841 10.6143 102.8 10.9883 103.807 11.0906C104.813 11.1929 105.828 11.0196 106.743 10.5893C107.658 10.1591 108.438 9.48814 109 8.64851C109.562 7.80889 109.885 6.8323 109.933 5.82361C109.981 4.81491 109.753 3.8122 109.273 2.92313C108.793 2.03406 108.08 1.29222 107.21 0.77724C106.34 0.262264 105.346 -0.00639251 104.335 0.00011549ZM105.769 5.5597C105.769 5.84292 105.685 6.11979 105.527 6.35528C105.37 6.59078 105.146 6.77432 104.884 6.88271C104.621 6.99109 104.333 7.01945 104.055 6.9642C103.777 6.90894 103.521 6.77256 103.321 6.57228C103.12 6.37201 102.983 6.11685 102.928 5.83907C102.873 5.56129 102.901 5.27336 103.01 5.01169C103.118 4.75002 103.302 4.52637 103.538 4.36902C103.774 4.21167 104.051 4.12768 104.335 4.12768C104.715 4.12768 105.08 4.27856 105.349 4.54711C105.618 4.81567 105.769 5.1799 105.769 5.5597ZM78.5417 6.99171C78.2562 7.0013 77.9743 6.92553 77.7321 6.77412C77.49 6.62271 77.2987 6.40256 77.1827 6.14188C77.0667 5.8812 77.0313 5.59188 77.0811 5.311C77.1309 5.03013 77.2636 4.77049 77.4621 4.56538C77.6606 4.36026 77.916 4.21902 78.1955 4.15975C78.4749 4.10048 78.7657 4.12589 79.0306 4.23271C79.2955 4.33954 79.5224 4.52292 79.6823 4.75934C79.8421 4.99576 79.9276 5.27446 79.9278 5.5597C79.928 5.9313 79.7835 6.28843 79.5249 6.55564C79.2662 6.82285 78.9137 6.97922 78.5417 6.99171Z" fill="#1E539C"/>
<path d="M123.824 11.2998C122.714 11.3049 121.631 11.6394 120.713 12.2609C119.794 12.8823 119.082 13.7625 118.665 14.7896H101.08C100.671 13.7593 99.9602 12.8757 99.0415 12.2532C98.1229 11.6306 97.0382 11.2978 95.9279 11.2978C94.8176 11.2978 93.7328 11.6306 92.8142 12.2532C91.8955 12.8757 91.1852 13.7593 90.7753 14.7896H64.9099C64.4283 13.5908 63.5437 12.5969 62.408 11.9785C61.2723 11.36 59.9563 11.1557 58.6862 11.4006C57.416 11.6455 56.2708 12.3242 55.4473 13.3204C54.6239 14.3165 54.1734 15.5678 54.1734 16.8594C54.1734 18.1509 54.6239 19.4022 55.4473 20.3984C56.2708 21.3945 57.416 22.0732 58.6862 22.3181C59.9563 22.563 61.2723 22.3587 62.408 21.7402C63.5437 21.1218 64.4283 20.1279 64.9099 18.9292H90.7753C91.1852 19.9594 91.8955 20.843 92.8142 21.4655C93.7328 22.0881 94.8176 22.4209 95.9279 22.4209C97.0382 22.4209 98.1229 22.0881 99.0415 21.4655C99.9602 20.843 100.671 19.9594 101.08 18.9292H118.665C119.042 19.8664 119.667 20.6835 120.474 21.2928C121.28 21.9022 122.238 22.2806 123.244 22.3876C124.249 22.4946 125.265 22.3261 126.182 21.9002C127.099 21.4743 127.883 20.807 128.449 19.97C129.015 19.1331 129.342 18.158 129.394 17.1496C129.447 16.1411 129.224 15.1374 128.748 14.2461C128.273 13.3547 127.563 12.6095 126.696 12.0905C125.828 11.5714 124.836 11.298 123.824 11.2998ZM125.258 16.8473C125.258 17.1305 125.174 17.4074 125.017 17.6429C124.859 17.8784 124.635 18.0619 124.373 18.1703C124.111 18.2787 123.823 18.3071 123.544 18.2518C123.266 18.1966 123.01 18.0602 122.81 17.8599C122.609 17.6596 122.473 17.4045 122.417 17.1267C122.362 16.8489 122.39 16.561 122.499 16.2993C122.608 16.0376 122.791 15.814 123.027 15.6566C123.263 15.4993 123.54 15.4153 123.824 15.4153C124.204 15.4153 124.569 15.5662 124.838 15.8347C125.107 16.1033 125.258 16.4675 125.258 16.8473ZM97.3561 16.8473C97.3561 17.1305 97.272 17.4074 97.1144 17.6429C96.9568 17.8784 96.7328 18.0619 96.4707 18.1703C96.2086 18.2787 95.9202 18.3071 95.642 18.2518C95.3638 18.1966 95.1082 18.0602 94.9076 17.8599C94.7071 17.6596 94.5705 17.4045 94.5151 17.1267C94.4598 16.8489 94.4882 16.561 94.5967 16.2993C94.7053 16.0376 94.8891 15.814 95.125 15.6566C95.3609 15.4993 95.6382 15.4153 95.9218 15.4153C96.3022 15.4153 96.667 15.5662 96.936 15.8347C97.205 16.1033 97.3561 16.4675 97.3561 16.8473ZM61.1977 16.8473C61.1977 17.1305 61.1136 17.4074 60.956 17.6429C60.7984 17.8784 60.5744 18.0619 60.3123 18.1703C60.0502 18.2787 59.7618 18.3071 59.4836 18.2518C59.2054 18.1966 58.9498 18.0602 58.7492 17.8599C58.5486 17.6596 58.412 17.4045 58.3567 17.1267C58.3013 16.8489 58.3297 16.561 58.4383 16.2993C58.5468 16.0376 58.7307 15.814 58.9665 15.6566C59.2024 15.4993 59.4797 15.4153 59.7634 15.4153C60.1438 15.4153 60.5086 15.5662 60.7776 15.8347C61.0466 16.1033 61.1977 16.4675 61.1977 16.8473Z" fill="#F7BA25"/>
<path d="M188.295 49.543C188.295 49.4347 182.69 38.833 179.665 34.0315C178.59 32.3564 177.138 30.956 175.424 29.9424C173.709 28.9289 171.781 28.3305 169.794 28.1951H155.21V21.1915C155.21 19.4936 154.534 17.8653 153.332 16.6647C152.129 15.4641 150.498 14.7896 148.798 14.7896H136.251C135.701 14.7896 135.173 15.0076 134.785 15.3958C134.396 15.784 134.177 16.3104 134.177 16.8594C134.177 17.4083 134.396 17.9348 134.785 18.3229C135.173 18.7111 135.701 18.9292 136.251 18.9292H148.798C149.393 18.9386 149.962 19.1807 150.381 19.6037C150.8 20.0266 151.036 20.5966 151.039 21.1915V56.2819C151.036 56.883 150.795 57.4584 150.368 57.8823C149.941 58.3062 149.363 58.5442 148.761 58.5442H101.273C101.001 58.5442 100.731 58.5977 100.48 58.7018C100.228 58.8058 99.9999 58.9582 99.8074 59.1504C99.6149 59.3426 99.4622 59.5708 99.358 59.8219C99.2538 60.073 99.2002 60.3422 99.2002 60.614C99.2002 60.8858 99.2538 61.155 99.358 61.4061C99.4622 61.6572 99.6149 61.8854 99.8074 62.0776C99.9999 62.2698 100.228 62.4222 100.48 62.5263C100.731 62.6303 101.001 62.6838 101.273 62.6838H148.798C150.498 62.6838 152.129 62.0093 153.332 60.8087C154.534 59.6081 155.21 57.9798 155.21 56.2819V32.3348H169.733C171.035 32.4428 172.294 32.8512 173.411 33.5277C174.528 34.2043 175.472 35.1306 176.169 36.2337C178.351 39.6994 182.087 46.6549 183.715 49.7115H169.119C168.502 49.7115 167.91 49.4668 167.474 49.0312C167.037 48.5957 166.792 48.0049 166.792 47.3889V39.1097C166.814 38.8255 166.777 38.5398 166.683 38.2706C166.589 38.0014 166.44 37.7545 166.246 37.5453C166.052 37.3362 165.817 37.1693 165.555 37.0552C165.293 36.9411 165.011 36.8822 164.725 36.8822C164.44 36.8822 164.157 36.9411 163.896 37.0552C163.634 37.1693 163.399 37.3362 163.205 37.5453C163.011 37.7545 162.862 38.0014 162.768 38.2706C162.674 38.5398 162.637 38.8255 162.658 39.1097V47.3889C162.658 49.1007 163.339 50.7426 164.55 51.9541C165.761 53.1656 167.404 53.8479 169.119 53.8511H184.365V63.7789C184.377 64.0889 184.326 64.398 184.215 64.688C184.105 64.978 183.938 65.2429 183.723 65.4673C183.508 65.6916 183.251 65.8707 182.966 65.9941C182.681 66.1175 182.374 66.1826 182.063 66.1856H173.518C173.011 64.037 171.731 62.1493 169.921 60.8814C168.111 59.6134 165.898 59.0536 163.702 59.3083C161.506 59.5631 159.48 60.6146 158.01 62.2631C156.539 63.9116 155.727 66.042 155.727 68.2494C155.727 70.4568 156.539 72.5872 158.01 74.2357C159.48 75.8842 161.506 76.9357 163.702 77.1905C165.898 77.4452 168.111 76.8854 169.921 75.6175C171.731 74.3495 173.011 72.4618 173.518 70.3132H182.063C182.919 70.3116 183.766 70.141 184.555 69.8112C185.344 69.4814 186.06 68.9989 186.662 68.3915C187.264 67.7841 187.739 67.0638 188.061 66.2721C188.382 65.4805 188.544 64.6331 188.536 63.7789V50.5418C188.541 50.1939 188.458 49.8504 188.295 49.543ZM169.625 68.2193C169.625 69.1713 169.342 70.102 168.812 70.8936C168.283 71.6851 167.53 72.3021 166.649 72.6664C165.768 73.0307 164.798 73.1261 163.863 72.9403C162.928 72.7546 162.069 72.2962 161.395 71.623C160.72 70.9498 160.261 70.0921 160.075 69.1584C159.889 68.2247 159.985 67.2568 160.35 66.3773C160.714 65.4977 161.332 64.746 162.125 64.2171C162.918 63.6881 163.85 63.4058 164.804 63.4058C166.076 63.4245 167.292 63.9376 168.192 64.8363C169.092 65.735 169.606 66.9485 169.625 68.2193Z" fill="#F7BA25"/>
</svg>
