<svg width="30" height="25" viewBox="0 0 30 25" fill="none" xmlns="http://www.w3.org/2000/svg">
<path fill-rule="evenodd" clip-rule="evenodd" d="M3.75 0C1.67894 0 0 1.86549 0 4.16667V16.6667C0 18.489 1.05296 20.0382 2.51976 20.6039C2.73045 23.0706 4.59993 25 6.875 25C9.07905 25 10.9024 23.189 11.2057 20.8333H18.7943C19.0976 23.189 20.921 25 23.125 25C25.4001 25 27.2695 23.0706 27.4802 20.6039C28.947 20.0382 30 18.489 30 16.6667V10.766C30 9.75667 29.6702 8.78171 29.0721 8.02217L26.0628 4.20068C25.3506 3.29644 24.322 2.77778 23.2406 2.77778H21.0366C20.5219 1.15946 19.1328 0 17.5 0H3.75ZM5 20.0501V20.2276C5.04185 21.3381 5.8653 22.224 6.875 22.224C7.8847 22.224 8.70815 21.3381 8.75 20.2276V20.0501C8.70815 18.9397 7.8847 18.0537 6.875 18.0537C5.8653 18.0537 5.04185 18.9397 5 20.0501ZM6.875 15.2778C8.62025 15.2778 10.1268 16.4132 10.829 18.0556H19.171C19.8731 16.4132 21.3798 15.2778 23.125 15.2778C24.7806 15.2778 26.2214 16.2996 26.9645 17.8065C27.2883 17.5556 27.5 17.1386 27.5 16.6667V11.1111H21.25C19.8693 11.1111 18.75 9.8675 18.75 8.33333V4.16667C18.75 3.39961 18.1904 2.77778 17.5 2.77778H3.75C3.05965 2.77778 2.5 3.39961 2.5 4.16667V16.6667C2.5 17.1386 2.71181 17.5556 3.03556 17.8065C3.77865 16.2996 5.21944 15.2778 6.875 15.2778ZM21.25 5.55556V6.94444C21.25 7.71151 21.8096 8.33333 22.5 8.33333H25.9953L24.1812 6.02985C23.944 5.72844 23.601 5.55556 23.2406 5.55556H21.25ZM21.25 20.0501V20.2276C21.2919 21.3381 22.1152 22.224 23.125 22.224C24.1348 22.224 24.9581 21.3381 25 20.2276V20.0501C24.9581 18.9397 24.1348 18.0537 23.125 18.0537C22.1152 18.0537 21.2919 18.9397 21.25 20.0501Z" fill="white"/>
</svg>
