<svg width="30" height="30" viewBox="0 0 30 30" fill="none" xmlns="http://www.w3.org/2000/svg">
<g clip-path="url(#clip0_78_6)">
<path d="M29.7862 15.0403L15.7124 0.299043C15.5353 0.114355 15.2915 0.0112305 15.0365 0.0112305C14.7815 0.0112305 14.5368 0.115293 14.3596 0.299043L0.213699 15.0403C-0.145363 15.4134 -0.132238 16.0069 0.240887 16.3659C0.614949 16.724 1.20745 16.7137 1.56651 16.3387L2.82651 15.0253V29.0531C2.82651 29.5706 3.24651 29.9906 3.76401 29.9906H10.3134C10.83 29.9906 11.249 29.5734 11.2509 29.0559L11.2799 19.6912H18.7509V29.0531C18.7509 29.5706 19.1709 29.9906 19.6884 29.9906H26.2349C26.7524 29.9906 27.1724 29.5706 27.1724 29.0531V15.0206L28.4315 16.3397C28.6162 16.5309 28.8618 16.6284 29.1084 16.6284C29.3418 16.6284 29.5762 16.5422 29.7571 16.3669C30.1303 16.0087 30.1425 15.4153 29.7843 15.0422L29.7862 15.0403ZM25.2984 13.3247V28.1147H20.6268V18.7528C20.6268 18.2353 20.2068 17.8153 19.6893 17.8153H10.3471C9.83057 17.8153 9.41151 18.2325 9.40964 18.75L9.38057 28.1147H4.70339V13.3237C4.70339 13.2469 4.6912 13.1719 4.67339 13.0997L15.0375 2.29967L25.3331 13.0875C25.3134 13.1634 25.2993 13.2422 25.2993 13.3237L25.2984 13.3247Z" fill="#243B55"/>
</g>
<defs>
<clipPath id="clip0_78_6">
<rect width="30" height="30" fill="white"/>
</clipPath>
</defs>
</svg>
